HIERARCHY
ROOT Hips
{
	OFFSET 0.00000 0.00000 0.00000
	CHANNELS 6 Xposition Yposition Zposition Zrotation Yrotation Xrotation 
	JOINT LHipJoint
	{
		OFFSET 0 0 0
		CHANNELS 3 Zrotation Yrotation Xrotation
		JOINT LeftHip
		{
			OFFSET 1.36337 -1.57426 1.11036
			CHANNELS 3 Zrotation Yrotation Xrotation
			JOINT LeftKnee
			{
				OFFSET 2.38468 -6.55187 0.00000
				CHANNELS 3 Zrotation Yrotation Xrotation
				JOINT LeftAnkle
				{
					OFFSET 2.37166 -6.51609 0.00000
					CHANNELS 3 Zrotation Yrotation Xrotation
					JOINT LeftToe
					{
						OFFSET 0.29078 -0.79891 2.01393
						CHANNELS 3 Zrotation Yrotation Xrotation
						End Site
						{
							OFFSET 0.00000 -0.00000 1.07924
						}
					}
				}
			}
		}
	}
	JOINT RHipJoint
	{
		OFFSET 0 0 0
		CHANNELS 3 Zrotation Yrotation Xrotation
		JOINT RightHip
		{
			OFFSET -1.36349 -1.57426 1.11036
			CHANNELS 3 Zrotation Yrotation Xrotation
			JOINT RightKnee
			{
				OFFSET -2.29562 -6.30717 0.00000
				CHANNELS 3 Zrotation Yrotation Xrotation
				JOINT RightAnkle
				{
					OFFSET -2.40985 -6.62100 0.00000
					CHANNELS 3 Zrotation Yrotation Xrotation
					JOINT RightToe
					{
						OFFSET -0.23197 -0.63733 1.92232
						CHANNELS 3 Zrotation Yrotation Xrotation
						End Site
						{
							OFFSET -0.00000 -0.00000 1.01562
						}
					}
				}
			}
		}
	}
	JOINT lowerback
	{
		OFFSET 0 0 0
		CHANNELS 3 Zrotation Yrotation Xrotation
		JOINT Chest
		{
			OFFSET -0.08565 2.03602 -0.24562
			CHANNELS 3 Zrotation Yrotation Xrotation
			JOINT Chest2
			{
				OFFSET -0.00036 2.05693 0.00216
				CHANNELS 3 Zrotation Yrotation Xrotation
				JOINT lowerneck
				{
					OFFSET 0 0 0
					CHANNELS 3 Zrotation Yrotation Xrotation
					JOINT Neck
					{
						OFFSET -0.03664 1.69515 0.31789
						CHANNELS 3 Zrotation Yrotation Xrotation
						JOINT Head
						{
							OFFSET 0.00932 1.70181 -0.46013
							CHANNELS 3 Zrotation Yrotation Xrotation
							End Site
							{
								OFFSET 0.01243 1.77620 -0.19377
							}
						}
					}
				}
				JOINT LeftCollar
				{
					OFFSET 0 0 0
					CHANNELS 3 Zrotation Yrotation Xrotation
					JOINT LeftShoulder
					{
						OFFSET 3.74344 0.81315 -0.36647
CHANNELS 3 Zrotation Xrotation Yrotation
						JOINT LeftElbow
						{
OFFSET 0 -4.971850 -0.000000
CHANNELS 3 Zrotation Xrotation Yrotation
							JOINT LeftWrist
							{
OFFSET 0 -3.358110 0.000000
CHANNELS 3 Zrotation Xrotation Yrotation
								JOINT lhand
								{
									OFFSET 0 0 0
CHANNELS 3 Zrotation Xrotation Yrotation
									JOINT LFingers
									{
OFFSET 0 -0.622780 0.000000
CHANNELS 3 Zrotation Xrotation Yrotation
										End Site
										{
OFFSET 0 -0.502100 0.000000
										}
									}
								}
								JOINT LThumb
								{
OFFSET 0 0.000000 0.000000
CHANNELS 3 Zrotation Xrotation Yrotation
									End Site
									{
OFFSET 0 -0.509760 0.509760
									}
								}
							}
						}
					}
				}
				JOINT RightCollar
				{
					OFFSET 0 0 0
					CHANNELS 3 Zrotation Yrotation Xrotation
					JOINT RightShoulder
					{
						OFFSET -3.75385 0.50666 -0.06525
CHANNELS 3 Zrotation Xrotation Yrotation
						JOINT RightElbow
						{
OFFSET 0 -4.964930 -0.000000
CHANNELS 3 Zrotation Xrotation Yrotation
							JOINT RightWrist
							{
OFFSET 0 -3.349290 0.000000
CHANNELS 3 Zrotation Xrotation Yrotation
								JOINT rhand
								{
									OFFSET 0 0 0
CHANNELS 3 Zrotation Xrotation Yrotation
									JOINT RFingers
									{
OFFSET 0 -0.638040 0.000000
CHANNELS 3 Zrotation Xrotation Yrotation
										End Site
										{
OFFSET 0 -0.514410 0.000000
										}
									}
								}
								JOINT RThumb
								{
OFFSET 0 0.000000 0.000000
CHANNELS 3 Zrotation Xrotation Yrotation
									End Site
									{
OFFSET 0 -0.522260 0.522260
									}
								}
							}
						}
					}
				}
			}
		}
	}
}
MOTION
Frames: 9
Frame Time: 0.008333333333333333
-27.597800 16.524200 -0.264100 164.051000 75.071000 168.362000 0.000000 0.000000 0.000000 -22.645400 -8.883200 -5.667500 1.791000 8.416400 23.986200 1.418000 3.941600 -24.216100 0.013700 0.756800 2.079900 0.000000 0.000000 0.000000 12.822600 1.312600 -6.252700 -1.927600 -8.713700 24.903700 -2.528200 -13.499800 -37.206100 -0.988900 -6.329300 17.743100 -4.439000 1.499200 -8.071800 -1.118700 2.554500 1.854000 1.661800 1.117000 6.338500 17.214700 16.624100 -4.825800 -13.566200 26.551300 24.018800 -3.519100 12.773400 13.019100 0.000000 -0.000000 0.000000 -2.353900 -6.261300 -26.006500 10.870500 -18.089500 1.735500 22.787500 -7.832900 12.015800 0.000000 0.000000 0.000000 -7.125000 0.000000 0.000000 -3.072100 16.991700 -2.043200 0.000000 -0.000000 0.000000 1.451800 -2.622800 26.790000 -11.664900 -19.300200 -1.990200 -14.008100 1.688700 28.821900 0.000000 0.000000 0.000000 7.125000 0.000000 -0.000000 18.879300 58.528100 -6.391300
-27.593908 16.526783 -0.260116 164.635362 75.125458 169.042689 0.000000 0.000000 0.000000 -22.413575 -8.902062 -5.937245 1.830973 8.504820 24.258229 1.415661 3.932910 -24.193529 0.013604 0.753615 2.071115 0.000000 0.000000 0.000000 13.060004 1.607628 -6.167565 -1.883783 -8.619648 24.612572 -2.476627 -13.988190 -37.293757 -0.952316 -6.214440 17.407883 -4.364425 1.395078 -8.069942 -1.079389 2.398959 1.720124 1.638954 1.047131 6.205564 17.205692 16.608589 -4.521357 -13.719940 26.617678 23.895690 -3.587805 12.816064 12.947694 0.000000 0.000000 0.000000 -3.000385 -8.628748 -20.549231 7.523425 -12.775346 0.845911 36.405357 1.099627 6.878361 0.000000 0.000000 0.000000 -7.125000 0.000000 0.000000 6.995187 21.502306 3.935270 0.000000 0.000000 0.000000 1.431239 -2.481216 26.924612 -11.640592 -19.263514 -1.982164 -13.972422 1.575849 28.248056 0.000000 0.000000 0.000000 7.125000 0.000000 0.000000 18.529034 57.977207 -6.019823
-27.591259 16.528741 -0.254915 165.338127 75.146994 169.721866 0.000000 0.000000 0.000000 -22.180523 -9.015261 -5.956011 1.853759 8.554628 24.411891 1.425700 3.770496 -24.188297 0.016635 0.833649 2.291133 0.000000 0.000000 0.000000 13.333082 1.760068 -5.980791 -1.856772 -8.561218 24.432128 -2.454694 -14.208983 -37.343398 -0.975774 -6.288492 17.623836 -4.268959 1.349378 -8.048615 -1.028732 2.321571 1.691121 1.627487 1.012284 6.168312 16.896405 16.672187 -4.614706 -13.281716 26.627388 24.075556 -3.386428 12.823230 12.912561 0.000000 0.000000 0.000000 -2.174913 -5.106784 -29.158171 10.001388 -16.741776 1.475397 14.972436 3.240580 7.111606 0.000000 0.000000 0.000000 -7.125000 0.000000 0.000000 -8.638233 22.644506 -4.698392 0.000000 0.000000 0.000000 1.400523 -2.423634 27.337099 -11.638664 -19.260588 -1.981522 -14.972241 1.282417 27.645670 0.000000 0.000000 0.000000 7.125000 0.000000 0.000000 17.105295 57.618333 -5.389527
-27.587480 16.531361 -0.254666 165.971795 75.379671 170.313883 0.000000 0.000000 0.000000 -21.977033 -9.021114 -5.955124 1.871681 8.593495 24.531830 1.453920 3.885037 -24.464278 0.016472 0.828237 2.276216 0.000000 0.000000 0.000000 13.555872 1.801328 -5.877166 -1.830007 -8.502609 24.251327 -2.466302 -14.045608 -37.283162 -1.015239 -6.410570 17.980552 -4.069321 1.354367 -8.042184 -1.033007 2.306428 1.680053 1.508982 1.012301 6.160995 17.079566 16.652250 -4.596695 -13.499507 26.687893 24.150275 -3.469679 12.846563 13.019668 0.000000 0.000000 0.000000 -1.956880 -4.652187 -32.873114 10.129126 -16.941317 1.512359 22.146712 -4.719297 9.730954 0.000000 0.000000 0.000000 -7.125000 0.000000 0.000000 -3.442675 19.499455 -2.098418 0.000000 0.000000 0.000000 1.506372 -2.498079 27.267197 -11.620126 -19.232542 -1.975357 -14.698329 1.506150 28.225509 0.000000 0.000000 0.000000 7.125000 0.000000 0.000000 17.761544 58.113761 -5.818756
-27.587078 16.531331 -0.255400 166.438297 75.492762 170.777651 0.000000 0.000000 0.000000 -21.831985 -9.119548 -6.025835 1.900221 8.655073 24.722267 1.468586 3.975845 -24.622793 0.017139 0.845611 2.324207 0.000000 0.000000 0.000000 13.699517 1.738256 -5.817419 -1.798735 -8.433518 24.038812 -2.416747 -14.045092 -37.029407 -1.040623 -6.487744 18.206422 -3.953252 1.367508 -8.062344 -1.027519 2.312722 1.696294 1.451490 1.018530 6.193210 17.110987 16.678439 -4.795431 -13.327837 26.674618 24.346587 -3.394081 12.837382 13.110861 0.000000 0.000000 0.000000 -1.926466 -4.815059 -33.259725 10.076523 -16.859089 1.497074 22.585236 -5.026978 9.552367 0.000000 0.000000 0.000000 -7.125000 0.000000 0.000000 -3.124191 19.658485 -1.893866 0.000000 0.000000 0.000000 1.576240 -2.626999 27.107468 -11.572753 -19.160819 -1.959752 -14.607964 1.568657 27.853514 0.000000 0.000000 0.000000 7.125000 0.000000 0.000000 17.614151 57.738948 -5.608132
-27.589522 16.531775 -0.252076 166.920264 75.636822 171.009973 0.000000 0.000000 0.000000 -21.695270 -9.067346 -5.794239 1.909466 8.674833 24.783364 1.476866 4.056341 -24.727758 0.019581 0.902756 2.481262 0.000000 0.000000 0.000000 13.890165 1.689143 -5.562637 -1.786381 -8.406129 23.954575 -2.402853 -14.109298 -37.005501 -0.939431 -6.173397 17.288314 -3.863833 1.371618 -7.726945 -0.971210 2.287682 1.705470 1.446585 1.011878 6.013445 16.976907 16.731170 -4.572729 -13.235728 26.723227 24.163391 -3.359894 12.873952 12.962226 0.000000 0.000000 0.000000 -1.898585 -4.714155 -33.428652 10.087614 -16.876420 1.500253 22.122880 -5.660990 10.492796 0.000000 0.000000 0.000000 -7.125000 0.000000 0.000000 -3.481010 18.685689 -2.186388 0.000000 0.000000 0.000000 1.508468 -2.492626 27.369631 -11.939586 -19.713918 -2.081939 -14.101158 1.327466 29.587364 0.000000 0.000000 0.000000 7.125000 0.000000 0.000000 19.326659 59.269576 -6.900448
-27.587237 16.533785 -0.252452 167.281397 75.696826 171.432634 0.000000 0.000000 0.000000 -21.585132 -9.133650 -5.918082 1.926512 8.711302 24.896343 1.485093 4.139119 -24.832854 0.016330 0.824121 2.264935 0.000000 0.000000 0.000000 13.997179 1.752319 -5.532740 -1.762797 -8.353524 23.793156 -2.407106 -14.027480 -36.967345 -1.031384 -6.459628 18.123979 -3.774289 1.387579 -7.828643 -0.979878 2.305942 1.720225 1.393258 1.022362 6.089713 17.183832 16.697112 -4.616437 -13.467368 26.699679 24.100410 -3.465904 12.856113 13.015925 0.000000 0.000000 0.000000 -1.757730 -4.792685 -33.577545 10.075756 -16.858047 1.496819 21.982666 -5.609628 10.595335 0.000000 0.000000 0.000000 -7.125000 0.000000 0.000000 -3.583344 18.587430 -2.258623 0.000000 0.000000 0.000000 1.583808 -2.585447 27.404066 -11.962037 -19.747655 -2.089467 -14.380798 1.349768 30.009795 0.000000 0.000000 0.000000 7.125000 0.000000 0.000000 19.337038 59.731963 -7.115354
-27.589588 16.535982 -0.245939 167.878845 75.896621 172.097098 0.000000 0.000000 0.000000 -21.326098 -9.117704 -6.095487 1.949037 8.759146 25.044727 1.502088 4.093452 -24.937338 0.022291 0.963699 2.648926 0.000000 0.000000 0.000000 14.254946 2.015809 -5.506665 -1.733020 -8.286334 23.587257 -2.346893 -14.363534 -36.906598 -0.968183 -6.264239 17.553235 -3.716447 1.390765 -7.844200 -0.897225 2.297020 1.668895 1.445599 1.019346 6.043274 17.072513 16.727424 -4.603119 -13.422785 26.733111 24.061609 -3.431720 12.867320 12.977661 0.000000 0.000000 0.000000 -1.802625 -4.860868 -33.215863 10.013291 -16.760353 1.478758 21.928982 -5.591197 10.897010 0.000000 0.000000 0.000000 -7.125000 0.000000 0.000000 -3.630803 18.269321 -2.314316 0.000000 0.000000 0.000000 1.532441 -2.488939 27.802712 -12.039044 -19.863216 -2.115548 -14.970530 1.224992 29.920667 0.000000 0.000000 0.000000 7.125000 0.000000 0.000000 18.646824 59.784705 -6.873904
-27.588095 16.544174 -0.243987 168.525267 75.993042 172.818399 0.000000 0.000000 0.000000 -21.112387 -9.104774 -6.205320 1.948582 8.758182 25.041707 1.507445 4.096065 -24.979499 0.020005 0.913008 2.509453 0.000000 0.000000 0.000000 14.419215 1.789292 -5.671312 -1.721770 -8.260671 23.508752 -2.307857 -14.288073 -36.648417 -0.963276 -6.249194 17.509257 -3.567802 1.398752 -7.890051 -0.862759 2.290504 1.624528 1.398257 1.021217 6.026713 17.176830 16.720247 -4.402873 -13.607120 26.749263 23.847089 -3.526411 12.883984 12.903815 0.000000 0.000000 0.000000 -1.794920 -4.939804 -33.127822 9.928968 -16.628427 1.454570 21.805153 -5.294670 10.884989 0.000000 0.000000 0.000000 -7.125000 0.000000 0.000000 -3.717659 18.292753 -2.368031 0.000000 0.000000 0.000000 1.577449 -2.531805 27.240255 -12.050271 -19.879952 -2.119368 -14.436927 2.521501 31.415241 0.000000 0.000000 0.000000 7.125000 0.000000 0.000000 20.372990 61.059249 -8.163029
